<svg xmlns="http://www.w3.org/2000/svg" viewBox="0 0 64 64">
  <circle cx="32" cy="32" r="28" fill="#2563eb" />
  <path d="M32 4 L38 14 L26 14 Z" fill="#2563eb" transform="rotate(0, 32, 32)" />
  <path d="M32 4 L38 14 L26 14 Z" fill="#2563eb" transform="rotate(45, 32, 32)" />
  <path d="M32 4 L38 14 L26 14 Z" fill="#2563eb" transform="rotate(90, 32, 32)" />
  <path d="M32 4 L38 14 L26 14 Z" fill="#2563eb" transform="rotate(135, 32, 32)" />
  <path d="M32 4 L38 14 L26 14 Z" fill="#2563eb" transform="rotate(180, 32, 32)" />
  <path d="M32 4 L38 14 L26 14 Z" fill="#2563eb" transform="rotate(225, 32, 32)" />
  <path d="M32 4 L38 14 L26 14 Z" fill="#2563eb" transform="rotate(270, 32, 32)" />
  <path d="M32 4 L38 14 L26 14 Z" fill="#2563eb" transform="rotate(315, 32, 32)" />
  <circle cx="32" cy="32" r="12" fill="#ffffff" />
</svg>
